# xmcd
#
# Track frame offsets:
# 150
# 14564
# 37074
# 57440
# 78758
# 102821
# 118019
# 133707
# 149512
# 169242
# 184097
# 194201
# 212287
# 228327
# 244812
# 260639
# 289391
# 315216
#
# Disc length: 4533 seconds
#
#
# Revision: 0
# Processed by: cddbd v1.5.1PL2 Copyright (c) Steve Scherf et al.
# Submitted via: FreeRIP 2.944 
#
DISCID=0d11b312
DTITLE=Chitãozinho and Xororó - Natal em Família
DYEAR=1900
DGENRE=Religioso
TTITLE0=Chitãozinho and Xororó - Noite Feliz
TTITLE1=Chitãozinho and Xororó - O home de Nazaré
TTITLE2=Chitãozinho and Xororó - Presente de Natal
TTITLE3=Chitãozinho and Xororó - Naral branco
TTITLE4=Chitãozinho and Xororó - Nossa Senhora
TTITLE5=Chitãozinho and Xororó - Cante a canção
TTITLE6=Chitãozinho and Xororó - Natal das crianças
TTITLE7=Chitãozinho and Xororó - Rastros na areia
TTITLE8=Chitãozinho and Xororó - Meu senhor
TTITLE9=Chitãozinho and Xororó - Boas festas
TTITLE10=Chitãozinho and Xororó - Um sino feliz
TTITLE11=Chitãozinho and Xororó - Uma grande família
TTITLE12=Chitãozinho and Xororó - Hino de reis
TTITLE13=Chitãozinho and Xororó - Se uma estrela aparecer
TTITLE14=Chitãozinho and Xororó - Jesus Cristo
TTITLE15=Chitãozinho and Xororó - Christmas medley
TTITLE16=Chitãozinho and Xororó - Let the whole world know
TTITLE17=Chitãozinho and Xororó - En el portal de Belém
EXTD=
EXTT0=
EXTT1=
EXTT2=
EXTT3=
EXTT4=
EXTT5=
EXTT6=
EXTT7=
EXTT8=
EXTT9=
EXTT10=
EXTT11=
EXTT12=
EXTT13=
EXTT14=
EXTT15=
EXTT16=
EXTT17=
PLAYORDER=
